# xmcd
# 
# Track frame offsets:
#     150
#     16587
#     37712
#     56638
#     75170
#     95228
#     122524
#     141111
#     158128
#     173072
# 
# Disc length: 2582
# 
# Revision: 0
# Processed by: cddbd v1.5.2PL0 Copyright (c) Steve Scherf et al.
# Submitted via: fre:ac v1.0.31
# 
DISCID=6a0a140a
DTITLE=4Square - Fuel
DYEAR=2016
DGENRE=Folk
TTITLE0=Ignition
TTITLE1=The Digging Song
TTITLE2=Dosketchup
TTITLE3=Enough to be on your way
TTITLE4=Brave
TTITLE5=The great goose chase
TTITLE6=Message from cloud nine
TTITLE7=Fuel
TTITLE8=If only
TTITLE9=Balls to balls
EXTD=
EXTT0=
EXTT1=
EXTT2=
EXTT3=
EXTT4=
EXTT5=
EXTT6=
EXTT7=
EXTT8=
EXTT9=
PLAYORDER=
